PathFileType	4	(X/Y/Z)	output.trc
DataRate	CameraRate	NumFrames	NumMarkers	Units	OrigDataRate	OrigDataStartFrame	OrigNumFrames
100	100	9	23	m	100	1	4621
Frame#	Time	C7			T8			EL			EM			US			RS			AA			Fore_Clus_1			Fore_Clus_2			Fore_Clus_3			Fore_Clus_4			Hum_Clus_1			Hum_Clus_2			Hum_Clus_3			Hum_Clus_4			Thor_Clus_1			Thor_Clus_2			Thor_Clus_3			Thor_Clus_4			IJ			PX			GH			Thor_Clus_5		
		X1	Y1	Z1	X2	Y2	Z2	X3	Y3	Z3	X4	Y4	Z4	X5	Y5	Z5	X6	Y6	Z6	X7	Y7	Z7	X8	Y8	Z8	X9	Y9	Z9	X10	Y10	Z10	X11	Y11	Z11	X12	Y12	Z12	X13	Y13	Z13	X14	Y14	Z14	X15	Y15	Z15	X16	Y16	Z16	X17	Y17	Z17	X18	Y18	Z18	X19	Y19	Z19	X20	Y20	Z20	X21	Y21	Z21	X22	Y22	Z22	X23	Y23	Z23
0	0.000000	-0.077300	1.441002	-0.108844	-0.076217	1.214055	-0.100001	-0.227906	1.082495	0.073691	-0.207612	1.051661	0.017160	-0.203308	0.831665	0.154390	-0.155798	0.840699	0.155038	-0.208326	1.356143	0.013534	-0.213190	0.888739	0.174836	-0.206070	0.836766	0.190625	-0.178743	0.841140	0.191270	-0.168838	0.895841	0.176493	-0.214831	1.192470	0.107306	-0.263169	1.201524	0.072426	-0.262200	1.265144	0.069165	-0.209940	1.265716	0.096205	0.043647	1.329865	0.018821	0.002760	1.284011	0.076665	0.004861	1.329535	0.041066	0.058187	1.284092	0.043750	-0.021070	1.359985	-0.028061	0.011938	1.153427	0.051623	-0.177310	1.335688	0.005853	-0.004316	1.304314	0.065319
1	0.010000	-0.077363	1.440976	-0.108672	-0.076218	1.214031	-0.099793	-0.227993	1.082493	0.073880	-0.207695	1.051662	0.017348	-0.203267	0.831652	0.154606	-0.155760	0.840705	0.155256	-0.208427	1.356097	0.013652	-0.213173	0.888744	0.175034	-0.206030	0.836761	0.190790	-0.178695	0.841133	0.191470	-0.168827	0.895855	0.176713	-0.214920	1.192474	0.107515	-0.263250	1.201528	0.072618	-0.262295	1.265150	0.069339	-0.210030	1.265724	0.096385	0.043456	1.329832	0.018995	0.002625	1.284113	0.076863	0.004778	1.329563	0.041309	0.058112	1.284121	0.044004	-0.021151	1.359988	-0.027847	0.011877	1.153452	0.051885	-0.177403	1.335691	0.006057	-0.004419	1.304379	0.065548
2	0.020000	-0.077423	1.440967	-0.108491	-0.076212	1.214023	-0.099594	-0.228084	1.082490	0.074059	-0.207779	1.051664	0.017527	-0.203232	0.831642	0.154810	-0.155728	0.840710	0.155466	-0.208525	1.356058	0.013770	-0.213179	0.888740	0.175208	-0.206183	0.836878	0.191242	-0.178600	0.840927	0.191889	-0.168839	0.895879	0.176918	-0.215043	1.192448	0.107692	-0.263343	1.201528	0.072786	-0.262391	1.265130	0.069510	-0.210135	1.265716	0.096558	0.043325	1.329850	0.019202	0.002474	1.284145	0.077095	0.004663	1.329583	0.041572	0.058045	1.284182	0.044232	-0.021228	1.360003	-0.027631	0.011822	1.153483	0.052134	-0.177501	1.335694	0.006254	-0.004519	1.304393	0.065794
3	0.030000	-0.077484	1.440967	-0.108308	-0.076199	1.214023	-0.099403	-0.228178	1.082487	0.074229	-0.207861	1.051666	0.017699	-0.203199	0.831630	0.155002	-0.155699	0.840717	0.155664	-0.208620	1.356016	0.013887	-0.213184	0.888749	0.175361	-0.206058	0.836956	0.191211	-0.178571	0.840962	0.192018	-0.168839	0.895901	0.177111	-0.215136	1.192448	0.107856	-0.263452	1.201535	0.072953	-0.262500	1.265125	0.069677	-0.210250	1.265722	0.096750	0.043211	1.329895	0.019423	0.002335	1.284193	0.077369	0.004594	1.329636	0.041833	0.057951	1.284237	0.044516	-0.021303	1.360025	-0.027415	0.011776	1.153519	0.052374	-0.177599	1.335699	0.006450	-0.004595	1.304437	0.066050
4	0.040000	-0.077541	1.440982	-0.108117	-0.076183	1.214038	-0.099219	-0.228273	1.082485	0.074393	-0.207941	1.051668	0.017866	-0.203174	0.831620	0.155182	-0.155678	0.840725	0.155851	-0.208711	1.355981	0.014008	-0.213205	0.888740	0.175523	-0.206073	0.836930	0.191401	-0.178558	0.840959	0.192175	-0.168871	0.895907	0.177308	-0.215246	1.192442	0.108000	-0.263563	1.201526	0.073107	-0.262634	1.265109	0.069830	-0.210375	1.265722	0.096919	0.043104	1.329928	0.019637	0.002194	1.284218	0.077617	0.004612	1.329669	0.042164	0.057885	1.284303	0.044760	-0.021374	1.360056	-0.027198	0.011735	1.153558	0.052602	-0.177698	1.335704	0.006640	-0.004678	1.304457	0.066308
5	0.050000	-0.077595	1.441011	-0.107916	-0.076167	1.214067	-0.099041	-0.228367	1.082482	0.074551	-0.208018	1.051670	0.018027	-0.203159	0.831610	0.155349	-0.155667	0.840734	0.156026	-0.208796	1.355954	0.014137	-0.213213	0.888733	0.175682	-0.206050	0.836919	0.191533	-0.178550	0.840979	0.192333	-0.168886	0.895912	0.177487	-0.215361	1.192438	0.108143	-0.263683	1.201535	0.073271	-0.262747	1.265103	0.069985	-0.210498	1.265722	0.097080	0.043095	1.329995	0.019902	0.002097	1.284242	0.077866	0.004568	1.329754	0.042406	0.057810	1.284362	0.045020	-0.021441	1.360095	-0.026978	0.011698	1.153600	0.052815	-0.177795	1.335710	0.006827	-0.004775	1.304469	0.066540
6	0.060000	-0.077648	1.441047	-0.107710	-0.076151	1.214102	-0.098866	-0.228459	1.082478	0.074706	-0.208087	1.051672	0.018187	-0.203152	0.831599	0.155506	-0.155663	0.840744	0.156188	-0.208876	1.355931	0.014273	-0.213245	0.888727	0.175821	-0.206061	0.836913	0.191668	-0.178543	0.840976	0.192480	-0.168930	0.895936	0.177666	-0.215471	1.192433	0.108294	-0.263798	1.201517	0.073397	-0.262870	1.265097	0.070137	-0.210660	1.265756	0.097297	0.043032	1.330064	0.020125	0.002028	1.284277	0.078097	0.004498	1.329787	0.042647	0.057732	1.284424	0.045288	-0.021504	1.360137	-0.026759	0.011665	1.153641	0.053020	-0.177889	1.335716	0.007014	-0.004801	1.304519	0.066814
7	0.070000	-0.077695	1.441098	-0.107492	-0.076143	1.214152	-0.098696	-0.228547	1.082475	0.074859	-0.208153	1.051674	0.018346	-0.203157	0.831592	0.155650	-0.155672	0.840751	0.156339	-0.208947	1.355923	0.014423	-0.213261	0.888713	0.175958	-0.206057	0.836892	0.191775	-0.178542	0.840987	0.192619	-0.168958	0.895955	0.177808	-0.215583	1.192441	0.108466	-0.263894	1.201512	0.073534	-0.262980	1.265093	0.070308	-0.210787	1.265773	0.097475	0.042996	1.330130	0.020382	0.001931	1.284342	0.078346	0.004448	1.329857	0.042881	0.057665	1.284484	0.045541	-0.021560	1.360186	-0.026537	0.011631	1.153682	0.053211	-0.177979	1.335721	0.007198	-0.004867	1.304543	0.067005
8	0.080000	-0.077740	1.441152	-0.107271	-0.076140	1.214205	-0.098527	-0.228629	1.082471	0.075013	-0.208211	1.051675	0.018506	-0.203172	0.831582	0.155784	-0.155689	0.840758	0.156478	-0.209013	1.355919	0.014582	-0.213301	0.888694	0.176089	-0.206056	0.836874	0.191901	-0.178560	0.840986	0.192761	-0.168990	0.895932	0.177935	-0.215705	1.192425	0.108637	-0.264006	1.201497	0.073668	-0.263080	1.265089	0.070448	-0.210921	1.265760	0.097649	0.042979	1.330175	0.020621	0.001853	1.284370	0.078515	0.004347	1.329906	0.043080	0.057608	1.284523	0.045764	-0.021614	1.360234	-0.026317	0.011599	1.153719	0.053394	-0.178062	1.335726	0.007384	-0.004965	1.304611	0.067188
